<svg width="645" height="591" viewBox="0 0 645 591" fill="none" xmlns="http://www.w3.org/2000/svg">
<g clip-path="url(#clip0)">
<path d="M548.46 582.678C547.239 583.839 546.01 584.988 544.794 586.129C541.661 587.504 538.184 587.892 534.825 587.24L17.268 487.926C14.0576 487.313 11.0939 485.783 8.7356 483.52C8.06789 482.17 7.41216 480.812 6.74634 479.452L7.73442 479.132L297.612 384.179C300.184 383.339 302.926 383.164 305.584 383.671C308.241 384.177 310.727 385.348 312.809 387.075L547.67 582.017L548.46 582.678Z" fill="#F2C16B"/>
<path d="M594.753 274.938L392.841 100.227C384.349 92.8784 374.073 87.8932 363.045 85.7714C352.017 83.6496 340.625 84.4659 330.012 88.1384L77.1955 175.624C72.7683 174.781 68.1875 175.728 64.4573 178.257C60.7271 180.786 58.152 184.691 57.2964 189.116L3.77627 468.027C2.93206 472.455 3.8784 477.036 6.40769 480.766C8.93698 484.497 12.8427 487.072 17.268 487.926L534.826 587.24C539.253 588.082 543.833 587.135 547.563 584.606C551.292 582.077 553.868 578.173 554.725 573.748L608.245 294.837C609.088 290.41 608.141 285.829 605.612 282.099C603.083 278.369 599.178 275.794 594.753 274.938ZM552.76 573.372C552.002 577.274 549.729 580.717 546.438 582.948C543.148 585.179 539.108 586.016 535.202 585.276L17.6449 485.962C13.7414 485.206 10.2968 482.933 8.06554 479.642C5.83425 476.352 4.99817 472.31 5.74043 468.404L59.2606 189.493C60.0148 185.588 62.2868 182.142 65.5783 179.91C68.8699 177.679 72.9122 176.844 76.8186 177.588L329.635 90.1026C340.248 86.4301 351.64 85.6137 362.668 87.7355C373.696 89.8573 383.972 94.8426 392.465 102.191L594.376 276.902C598.281 277.656 601.727 279.928 603.958 283.22C606.19 286.511 607.025 290.554 606.281 294.46L552.76 573.372Z" fill="white"/>
<path d="M305.988 383.139C304.277 382.816 302.632 382.205 301.126 381.332L300.849 381.17L300.915 380.498C300.713 380.553 300.509 380.605 300.306 380.651L300.092 380.7L299.911 380.575C299.532 380.314 299.161 380.029 298.807 379.73L137.497 243.435L177.304 35.9878C178.234 31.1719 181.036 26.9215 185.095 24.169C189.155 21.4165 194.141 20.3867 198.959 21.3056L538.759 86.5098C543.575 87.4395 547.826 90.2416 550.578 94.3012C553.331 98.3609 554.36 103.347 553.441 108.165L513.584 315.877L513.306 315.97L313.922 382.631C311.364 383.475 308.633 383.65 305.988 383.139Z" fill="white"/>
<path d="M305.894 383.63C304.127 383.297 302.429 382.666 300.874 381.764L300.319 381.44L300.348 381.155L299.989 381.236L299.627 380.987C299.235 380.716 298.85 380.422 298.484 380.111L136.951 243.629L176.813 35.8936C177.768 30.9475 180.646 26.5823 184.815 23.7554C188.984 20.9285 194.105 19.8709 199.053 20.8146L538.854 86.0187C543.8 86.9736 548.165 89.8515 550.992 94.0208C553.819 98.1902 554.876 103.311 553.932 108.259L514.019 316.259L314.08 383.104C311.441 383.977 308.623 384.157 305.894 383.63ZM302.438 380.343C305.85 382.073 309.807 382.383 313.447 381.208L512.276 314.733L551.968 107.882C552.813 103.455 551.866 98.8731 549.337 95.1426C546.808 91.4121 542.902 88.8372 538.477 87.9829L198.676 22.7787C194.249 21.9343 189.667 22.8806 185.937 25.4099C182.206 27.9392 179.631 31.8451 178.777 36.2705L139.135 242.856L149.641 251.728L299.776 378.585C299.98 378.758 300.189 378.923 300.403 379.082C300.661 379.014 300.916 378.937 301.169 378.853L302.635 378.361L302.438 380.343Z" fill="#3F3D56"/>
<path d="M605.707 284.555L526.748 310.948L513.148 315.496L313.763 382.156C311.287 382.974 308.643 383.143 306.083 382.648C304.427 382.335 302.836 381.744 301.378 380.9C300.97 380.677 300.575 380.432 300.195 380.164C299.827 379.91 299.472 379.638 299.13 379.348L148.996 252.492L138.043 243.243L63.6375 180.374C63.4357 180.201 63.3104 179.955 63.2889 179.689C63.2674 179.424 63.3513 179.161 63.5226 178.957C63.6938 178.755 63.9382 178.63 64.202 178.608C64.4658 178.586 64.7275 178.669 64.9297 178.84L138.476 240.984L149.43 250.234L300.422 377.814C300.923 378.237 301.455 378.622 302.014 378.965C302.25 379.112 302.499 379.251 302.749 379.381C304.331 380.219 306.066 380.729 307.85 380.879C309.635 381.029 311.431 380.816 313.13 380.253L513.579 313.247L527.18 308.699L605.072 282.661C605.197 282.619 605.328 282.603 605.459 282.612C605.59 282.621 605.717 282.656 605.835 282.714C605.952 282.772 606.057 282.853 606.143 282.952C606.229 283.051 606.295 283.166 606.336 283.291C606.378 283.415 606.395 283.546 606.386 283.677C606.377 283.808 606.342 283.936 606.283 284.053C606.225 284.17 606.144 284.275 606.045 284.361C605.946 284.447 605.831 284.513 605.707 284.555Z" fill="#E7E7E7"/>
<path d="M242.176 96.2936L214.678 91.017C212.594 90.6171 210.755 89.4059 209.564 87.6498C208.373 85.8936 207.929 83.7364 208.329 81.6527C208.729 79.569 209.94 77.7295 211.696 76.5388C213.452 75.3481 215.609 74.9038 217.693 75.3037L245.192 80.5803C247.275 80.9801 249.115 82.1914 250.305 83.9475C251.496 85.7036 251.94 87.8609 251.541 89.9446C251.141 92.0283 249.929 93.8678 248.173 95.0585C246.417 96.2492 244.26 96.6935 242.176 96.2936Z" fill="#F2C16B"/>
<path d="M269.497 129.029L209.59 117.533C207.506 117.133 205.667 115.922 204.476 114.166C203.285 112.41 202.841 110.253 203.241 108.169C203.641 106.085 204.852 104.246 206.608 103.055C208.364 101.864 210.521 101.42 212.605 101.82L272.512 113.315C274.596 113.715 276.435 114.926 277.626 116.683C278.817 118.439 279.261 120.596 278.861 122.68C278.461 124.763 277.25 126.603 275.494 127.794C273.738 128.984 271.581 129.429 269.497 129.029Z" fill="#E6E6E6"/>
<path d="M423.3 231.856L253.4 199.253C251.316 198.854 249.476 197.642 248.286 195.886C247.095 194.13 246.651 191.973 247.051 189.889C247.45 187.805 248.662 185.966 250.418 184.775C252.174 183.585 254.331 183.14 256.415 183.54L426.315 216.142C428.399 216.542 430.238 217.753 431.429 219.509C432.62 221.266 433.064 223.423 432.664 225.506C432.264 227.59 431.053 229.43 429.297 230.62C427.541 231.811 425.384 232.255 423.3 231.856Z" fill="#F2C16B"/>
<path d="M433.171 265.315L230.862 226.494C228.779 226.094 226.939 224.883 225.748 223.127C224.558 221.371 224.113 219.214 224.513 217.13C224.913 215.046 226.124 213.207 227.88 212.016C229.637 210.825 231.794 210.381 233.877 210.781L436.186 249.602C438.27 250.002 440.11 251.213 441.3 252.969C442.491 254.725 442.935 256.883 442.536 258.966C442.136 261.05 440.924 262.89 439.168 264.08C437.412 265.271 435.255 265.715 433.171 265.315Z" fill="#E6E6E6"/>
<path d="M427.518 294.778L225.209 255.957C223.125 255.557 221.285 254.346 220.095 252.59C218.904 250.833 218.46 248.676 218.86 246.593C219.26 244.509 220.471 242.669 222.227 241.479C223.983 240.288 226.14 239.844 228.224 240.243L430.533 279.064C432.617 279.464 434.456 280.676 435.647 282.432C436.838 284.188 437.282 286.345 436.882 288.429C436.482 290.512 435.271 292.352 433.515 293.543C431.759 294.733 429.601 295.178 427.518 294.778Z" fill="#E6E6E6"/>
</g>
<defs>
<clipPath id="clip0">
<rect width="561" height="493" fill="white" transform="translate(93.4791 0.556061) rotate(10.8624)"/>
</clipPath>
</defs>
</svg>
